solid OpenSCAD_Model
  facet normal 1 0 0
    outer loop
      vertex 25.5 10.5 34.5
      vertex 25.5 -4 32
      vertex 25.5 4 32
    endloop
  endfacet
  facet normal 1 0 0
    outer loop
      vertex 25.5 -4 32
      vertex 25.5 -10.5 34.5
      vertex 25.5 -4 28
    endloop
  endfacet
  facet normal 1 -0 0
    outer loop
      vertex 25.5 -10.5 34.5
      vertex 25.5 -4 32
      vertex 25.5 10.5 34.5
    endloop
  endfacet
  facet normal 1 0 0
    outer loop
      vertex 25.5 10.5 34.5
      vertex 25.5 11.5 56.5
      vertex 25.5 10.5 55.5
    endloop
  endfacet
  facet normal 1 0 0
    outer loop
      vertex 25.5 11.5 56.5
      vertex 25.5 -10.5 55.5
      vertex 25.5 10.5 55.5
    endloop
  endfacet
  facet normal 1 0 0
    outer loop
      vertex 25.5 -10.5 55.5
      vertex 25.5 -11.5 56.5
      vertex 25.5 -10.5 34.5
    endloop
  endfacet
  facet normal 1 -0 0
    outer loop
      vertex 25.5 -11.5 56.5
      vertex 25.5 -10.5 55.5
      vertex 25.5 11.5 56.5
    endloop
  endfacet
  facet normal 1 0 0
    outer loop
      vertex 25.5 11.5 56.5
      vertex 25.5 10.5 34.5
      vertex 25.5 11.5 -9
    endloop
  endfacet
  facet normal 1 0 0
    outer loop
      vertex 25.5 4 28
      vertex 25.5 10.5 34.5
      vertex 25.5 4 32
    endloop
  endfacet
  facet normal 1 0 0
    outer loop
      vertex 25.5 10.5 34.5
      vertex 25.5 4 28
      vertex 25.5 11.5 -9
    endloop
  endfacet
  facet normal 1 -0 0
    outer loop
      vertex 25.5 -4 28
      vertex 25.5 11.5 -9
      vertex 25.5 4 28
    endloop
  endfacet
  facet normal 1 0 0
    outer loop
      vertex 25.5 -11.5 -9
      vertex 25.5 -4 28
      vertex 25.5 -10.5 34.5
    endloop
  endfacet
  facet normal 1 0 0
    outer loop
      vertex 25.5 -4 28
      vertex 25.5 -11.5 -9
      vertex 25.5 11.5 -9
    endloop
  endfacet
  facet normal 1 0 0
    outer loop
      vertex 25.5 -11.5 -9
      vertex 25.5 -10.5 34.5
      vertex 25.5 -11.5 56.5
    endloop
  endfacet
  facet normal -1 0 0
    outer loop
      vertex 9 -7.5 41
      vertex 9 7.5 42
      vertex 9 7.5 41
    endloop
  endfacet
  facet normal -1 -0 0
    outer loop
      vertex 9 7.5 42
      vertex 9 -7.5 41
      vertex 9 -7.5 42
    endloop
  endfacet
  facet normal -1 0 0
    outer loop
      vertex 9 -7.5 48
      vertex 9 7.5 49
      vertex 9 7.5 48
    endloop
  endfacet
  facet normal -1 -0 0
    outer loop
      vertex 9 7.5 49
      vertex 9 -7.5 48
      vertex 9 -7.5 49
    endloop
  endfacet
  facet normal -0.328521 0.944497 0
    outer loop
      vertex 20.5 11.5 56.5
      vertex 9 7.5 48
      vertex 9 7.5 49
    endloop
  endfacet
  facet normal -0.328521 0.944497 0
    outer loop
      vertex 20.5 11.5 56.5
      vertex 9 7.5 42
      vertex 9 7.5 48
    endloop
  endfacet
  facet normal -0.328521 0.944497 0
    outer loop
      vertex 20.5 11.5 33.5
      vertex 9 7.5 42
      vertex 20.5 11.5 56.5
    endloop
  endfacet
  facet normal -0.328521 0.944497 0
    outer loop
      vertex 9 7.5 42
      vertex 20.5 11.5 33.5
      vertex 9 7.5 41
    endloop
  endfacet
  facet normal -0.328521 -0.944497 0
    outer loop
      vertex 9 -7.5 48
      vertex 20.5 -11.5 56.5
      vertex 9 -7.5 49
    endloop
  endfacet
  facet normal -0.328521 -0.944497 0
    outer loop
      vertex 9 -7.5 42
      vertex 20.5 -11.5 56.5
      vertex 9 -7.5 48
    endloop
  endfacet
  facet normal -0.328521 -0.944497 0
    outer loop
      vertex 20.5 -11.5 33.5
      vertex 9 -7.5 42
      vertex 9 -7.5 41
    endloop
  endfacet
  facet normal -0.328521 -0.944497 0
    outer loop
      vertex 9 -7.5 42
      vertex 20.5 -11.5 33.5
      vertex 20.5 -11.5 56.5
    endloop
  endfacet
  facet normal -0.546268 0 -0.837611
    outer loop
      vertex 9 -7.5 41
      vertex 20.5 11.5 33.5
      vertex 20.5 -11.5 33.5
    endloop
  endfacet
  facet normal -0.546268 0 -0.837611
    outer loop
      vertex 20.5 11.5 33.5
      vertex 9 -7.5 41
      vertex 9 7.5 41
    endloop
  endfacet
  facet normal 0 -1 0
    outer loop
      vertex 15.5 -11.5 -5
      vertex 15.5 -11.5 -9
      vertex 20.5 -11.5 -5
    endloop
  endfacet
  facet normal 0 -1 0
    outer loop
      vertex 20.5 -11.5 33.5
      vertex 25.5 -11.5 56.5
      vertex 20.5 -11.5 56.5
    endloop
  endfacet
  facet normal 0 -1 0
    outer loop
      vertex 25.5 -11.5 -9
      vertex 20.5 -11.5 33.5
      vertex 20.5 -11.5 -5
    endloop
  endfacet
  facet normal 0 -1 0
    outer loop
      vertex 20.5 -11.5 33.5
      vertex 25.5 -11.5 -9
      vertex 25.5 -11.5 56.5
    endloop
  endfacet
  facet normal 0 -1 0
    outer loop
      vertex 25.5 -11.5 -9
      vertex 20.5 -11.5 -5
      vertex 15.5 -11.5 -9
    endloop
  endfacet
  facet normal 0 1 0
    outer loop
      vertex 25.5 11.5 56.5
      vertex 20.5 11.5 33.5
      vertex 20.5 11.5 56.5
    endloop
  endfacet
  facet normal 0 1 -0
    outer loop
      vertex 25.5 11.5 -9
      vertex 20.5 11.5 33.5
      vertex 25.5 11.5 56.5
    endloop
  endfacet
  facet normal 0 1 0
    outer loop
      vertex 20.5 11.5 33.5
      vertex 25.5 11.5 -9
      vertex 20.5 11.5 -5
    endloop
  endfacet
  facet normal 0 1 0
    outer loop
      vertex 15.5 11.5 -9
      vertex 20.5 11.5 -5
      vertex 25.5 11.5 -9
    endloop
  endfacet
  facet normal 0 1 0
    outer loop
      vertex 20.5 11.5 -5
      vertex 15.5 11.5 -9
      vertex 15.5 11.5 -5
    endloop
  endfacet
  facet normal -0 0 1
    outer loop
      vertex 20.5 11.5 56.5
      vertex 25.5 -11.5 56.5
      vertex 25.5 11.5 56.5
    endloop
  endfacet
  facet normal 0 0 1
    outer loop
      vertex 25.5 -11.5 56.5
      vertex 20.5 11.5 56.5
      vertex 20.5 -11.5 56.5
    endloop
  endfacet
  facet normal -0.546268 0 0.837611
    outer loop
      vertex 9 7.5 49
      vertex 20.5 -11.5 56.5
      vertex 20.5 11.5 56.5
    endloop
  endfacet
  facet normal -0.546268 0 0.837611
    outer loop
      vertex 20.5 -11.5 56.5
      vertex 9 7.5 49
      vertex 9 -7.5 49
    endloop
  endfacet
  facet normal -1 0 0
    outer loop
      vertex 20.5 11.5 -5
      vertex 20.5 4 28
      vertex 20.5 11.5 33.5
    endloop
  endfacet
  facet normal -1 0 0
    outer loop
      vertex 20.5 11.5 -5
      vertex 20.5 -4 28
      vertex 20.5 4 28
    endloop
  endfacet
  facet normal -1 0 0
    outer loop
      vertex 20.5 -11.5 33.5
      vertex 20.5 -4 28
      vertex 20.5 -11.5 -5
    endloop
  endfacet
  facet normal -1 0 0
    outer loop
      vertex 20.5 -11.5 -5
      vertex 20.5 -4 28
      vertex 20.5 11.5 -5
    endloop
  endfacet
  facet normal -1 0 0
    outer loop
      vertex 20.5 4 32
      vertex 20.5 11.5 33.5
      vertex 20.5 4 28
    endloop
  endfacet
  facet normal -1 0 0
    outer loop
      vertex 20.5 -4 32
      vertex 20.5 11.5 33.5
      vertex 20.5 4 32
    endloop
  endfacet
  facet normal -1 0 0
    outer loop
      vertex 20.5 -4 32
      vertex 20.5 -11.5 33.5
      vertex 20.5 11.5 33.5
    endloop
  endfacet
  facet normal -1 0 0
    outer loop
      vertex 20.5 -4 28
      vertex 20.5 -11.5 33.5
      vertex 20.5 -4 32
    endloop
  endfacet
  facet normal -1 0 0
    outer loop
      vertex 15.5 -11.5 -9
      vertex 15.5 11.5 -5
      vertex 15.5 11.5 -9
    endloop
  endfacet
  facet normal -1 -0 0
    outer loop
      vertex 15.5 11.5 -5
      vertex 15.5 -11.5 -9
      vertex 15.5 -11.5 -5
    endloop
  endfacet
  facet normal -0 0 1
    outer loop
      vertex 15.5 11.5 -5
      vertex 20.5 -11.5 -5
      vertex 20.5 11.5 -5
    endloop
  endfacet
  facet normal 0 0 1
    outer loop
      vertex 20.5 -11.5 -5
      vertex 15.5 11.5 -5
      vertex 15.5 -11.5 -5
    endloop
  endfacet
  facet normal 0 0 -1
    outer loop
      vertex 15.5 -11.5 -9
      vertex 25.5 11.5 -9
      vertex 25.5 -11.5 -9
    endloop
  endfacet
  facet normal -0 0 -1
    outer loop
      vertex 25.5 11.5 -9
      vertex 15.5 -11.5 -9
      vertex 15.5 11.5 -9
    endloop
  endfacet
  facet normal 0.242536 -0.970143 0
    outer loop
      vertex 9 7.5 42
      vertex 21 10.5 55.5
      vertex 9 7.5 48
    endloop
  endfacet
  facet normal 0.242536 -0.970143 0
    outer loop
      vertex 21 10.5 55.5
      vertex 9 7.5 42
      vertex 21 10.5 34.5
    endloop
  endfacet
  facet normal -0 0 1
    outer loop
      vertex 21 10.5 34.5
      vertex 25.5 -10.5 34.5
      vertex 25.5 10.5 34.5
    endloop
  endfacet
  facet normal 0 0 1
    outer loop
      vertex 25.5 -10.5 34.5
      vertex 21 10.5 34.5
      vertex 21 -10.5 34.5
    endloop
  endfacet
  facet normal 0.529999 0 0.847998
    outer loop
      vertex 9 7.5 42
      vertex 21 -10.5 34.5
      vertex 21 10.5 34.5
    endloop
  endfacet
  facet normal 0.529999 0 0.847998
    outer loop
      vertex 21 -10.5 34.5
      vertex 9 7.5 42
      vertex 9 -7.5 42
    endloop
  endfacet
  facet normal 0 -1 0
    outer loop
      vertex 21 10.5 34.5
      vertex 25.5 10.5 55.5
      vertex 21 10.5 55.5
    endloop
  endfacet
  facet normal 0 -1 -0
    outer loop
      vertex 25.5 10.5 55.5
      vertex 21 10.5 34.5
      vertex 25.5 10.5 34.5
    endloop
  endfacet
  facet normal 0 1 -0
    outer loop
      vertex 25.5 -10.5 34.5
      vertex 21 -10.5 55.5
      vertex 25.5 -10.5 55.5
    endloop
  endfacet
  facet normal 0 1 0
    outer loop
      vertex 21 -10.5 55.5
      vertex 25.5 -10.5 34.5
      vertex 21 -10.5 34.5
    endloop
  endfacet
  facet normal 0 0 -1
    outer loop
      vertex 21 -10.5 55.5
      vertex 25.5 10.5 55.5
      vertex 25.5 -10.5 55.5
    endloop
  endfacet
  facet normal -0 0 -1
    outer loop
      vertex 25.5 10.5 55.5
      vertex 21 -10.5 55.5
      vertex 21 10.5 55.5
    endloop
  endfacet
  facet normal 0.242536 0.970143 0
    outer loop
      vertex 21 -10.5 55.5
      vertex 9 -7.5 42
      vertex 9 -7.5 48
    endloop
  endfacet
  facet normal 0.242536 0.970143 0
    outer loop
      vertex 9 -7.5 42
      vertex 21 -10.5 55.5
      vertex 21 -10.5 34.5
    endloop
  endfacet
  facet normal 0.529999 0 -0.847998
    outer loop
      vertex 9 -7.5 48
      vertex 21 10.5 55.5
      vertex 21 -10.5 55.5
    endloop
  endfacet
  facet normal 0.529999 0 -0.847998
    outer loop
      vertex 21 10.5 55.5
      vertex 9 -7.5 48
      vertex 9 7.5 48
    endloop
  endfacet
  facet normal 0 0 -1
    outer loop
      vertex 20.5 -4 32
      vertex 25.5 4 32
      vertex 25.5 -4 32
    endloop
  endfacet
  facet normal -0 0 -1
    outer loop
      vertex 25.5 4 32
      vertex 20.5 -4 32
      vertex 20.5 4 32
    endloop
  endfacet
  facet normal -0 0 1
    outer loop
      vertex 20.5 4 28
      vertex 25.5 -4 28
      vertex 25.5 4 28
    endloop
  endfacet
  facet normal 0 0 1
    outer loop
      vertex 25.5 -4 28
      vertex 20.5 4 28
      vertex 20.5 -4 28
    endloop
  endfacet
  facet normal 0 1 -0
    outer loop
      vertex 25.5 -4 28
      vertex 20.5 -4 32
      vertex 25.5 -4 32
    endloop
  endfacet
  facet normal 0 1 0
    outer loop
      vertex 20.5 -4 32
      vertex 25.5 -4 28
      vertex 20.5 -4 28
    endloop
  endfacet
  facet normal 0 -1 0
    outer loop
      vertex 20.5 4 28
      vertex 25.5 4 32
      vertex 20.5 4 32
    endloop
  endfacet
  facet normal 0 -1 -0
    outer loop
      vertex 25.5 4 32
      vertex 20.5 4 28
      vertex 25.5 4 28
    endloop
  endfacet
endsolid OpenSCAD_Model
